<svg xmlns="http://www.w3.org/2000/svg" viewBox="0 0 64 64" role="img" aria-labelledby="title desc">
  <title id="title">Rod Allen portfolio favicon</title>
  <desc id="desc">A dark and gold RA monogram for Rod Allen's portfolio.</desc>
  <defs>
    <linearGradient id="gold" x1="10" y1="8" x2="54" y2="58" gradientUnits="userSpaceOnUse">
      <stop offset="0" stop-color="#f4d48b" />
      <stop offset="0.48" stop-color="#c99437" />
      <stop offset="1" stop-color="#8b641f" />
    </linearGradient>
    <radialGradient id="glow" cx="28%" cy="22%" r="74%">
      <stop offset="0" stop-color="#f8d88d" stop-opacity="0.36" />
      <stop offset="0.54" stop-color="#24486f" stop-opacity="0.14" />
      <stop offset="1" stop-color="#050a12" stop-opacity="0" />
    </radialGradient>
    <filter id="shadow" x="-20%" y="-20%" width="140%" height="140%">
      <feDropShadow dx="0" dy="7" stdDeviation="6" flood-color="#00050c" flood-opacity="0.42" />
    </filter>
  </defs>
  <rect width="64" height="64" rx="18" fill="#050a12" />
  <rect x="2" y="2" width="60" height="60" rx="16" fill="url(#glow)" />
  <path d="M12 48V16h16.2c6.8 0 11.2 3.8 11.2 9.8 0 4-2 7.1-5.5 8.6L42 48h-8.2l-6.9-12.1h-7.5V48H12Zm7.4-18.1h8c2.9 0 4.6-1.5 4.6-4s-1.7-4-4.6-4h-8v8Z" fill="url(#gold)" filter="url(#shadow)" />
  <path d="M37.2 48 50 16h2.4v10.8L43.9 48h-6.7Zm3.4-10.6h13.6l1.8 5.6H38.8l1.8-5.6Z" fill="#f7e7bd" opacity="0.92" filter="url(#shadow)" />
  <path d="M10 52h44" stroke="#f4d48b" stroke-width="2" stroke-linecap="round" opacity="0.52" />
</svg>
