<svg width="1600" height="960" viewBox="0 0 1600 960" fill="none" xmlns="http://www.w3.org/2000/svg">
  <rect width="1600" height="960" rx="48" fill="#0C1625"/>
  <rect x="48" y="48" width="1504" height="864" rx="36" fill="url(#bg)"/>
  <rect x="96" y="96" width="252" height="768" rx="28" fill="#101D31"/>
  <rect x="140" y="142" width="96" height="96" rx="26" fill="#E2B96F"/>
  <rect x="260" y="160" width="52" height="18" rx="9" fill="#F3F7FD" fill-opacity="0.88"/>
  <rect x="260" y="190" width="40" height="12" rx="6" fill="#9FB0C6"/>
  <rect x="140" y="292" width="164" height="52" rx="16" fill="#162843"/>
  <rect x="140" y="364" width="164" height="52" rx="16" fill="#162843"/>
  <rect x="140" y="436" width="164" height="52" rx="16" fill="#162843"/>
  <rect x="140" y="508" width="164" height="52" rx="16" fill="#162843"/>
  <rect x="140" y="580" width="164" height="52" rx="16" fill="#162843"/>
  <rect x="392" y="110" width="1112" height="92" rx="24" fill="#F7F4EC"/>
  <rect x="432" y="142" width="312" height="18" rx="9" fill="#152338"/>
  <rect x="1192" y="136" width="272" height="30" rx="15" fill="#E8C98C"/>
  <rect x="392" y="242" width="336" height="172" rx="28" fill="#13243B"/>
  <rect x="760" y="242" width="336" height="172" rx="28" fill="#13243B"/>
  <rect x="1128" y="242" width="376" height="172" rx="28" fill="#13243B"/>
  <rect x="432" y="282" width="132" height="16" rx="8" fill="#AFC4DB"/>
  <rect x="432" y="320" width="208" height="46" rx="18" fill="#1B3455"/>
  <rect x="800" y="282" width="156" height="16" rx="8" fill="#AFC4DB"/>
  <rect x="800" y="320" width="152" height="46" rx="18" fill="#1B3455"/>
  <rect x="1168" y="282" width="174" height="16" rx="8" fill="#AFC4DB"/>
  <rect x="1168" y="320" width="160" height="46" rx="18" fill="#1B3455"/>
  <rect x="392" y="454" width="716" height="378" rx="32" fill="#F7F4EC"/>
  <rect x="1140" y="454" width="364" height="378" rx="32" fill="#F7F4EC"/>
  <rect x="432" y="498" width="228" height="20" rx="10" fill="#16253D"/>
  <rect x="432" y="542" width="636" height="28" rx="14" fill="#E9DDC6"/>
  <rect x="432" y="590" width="636" height="28" rx="14" fill="#E9DDC6"/>
  <rect x="432" y="638" width="636" height="28" rx="14" fill="#E9DDC6"/>
  <rect x="432" y="686" width="636" height="28" rx="14" fill="#E9DDC6"/>
  <rect x="432" y="734" width="636" height="28" rx="14" fill="#E9DDC6"/>
  <rect x="1180" y="500" width="284" height="20" rx="10" fill="#16253D"/>
  <rect x="1180" y="548" width="284" height="204" rx="24" fill="#0F1E31"/>
  <path d="M1216 686C1256.67 624.667 1292 601 1322 615C1352 629 1379 606.333 1403 547" stroke="#7CC7FF" stroke-width="18" stroke-linecap="round"/>
  <circle cx="1216" cy="686" r="20" fill="#E2B96F"/>
  <circle cx="1324" cy="616" r="20" fill="#E2B96F"/>
  <circle cx="1402" cy="548" r="20" fill="#E2B96F"/>
  <defs>
    <linearGradient id="bg" x1="800" y1="48" x2="800" y2="912" gradientUnits="userSpaceOnUse">
      <stop stop-color="#11223A"/>
      <stop offset="1" stop-color="#0A1422"/>
    </linearGradient>
  </defs>
</svg>
